M48
; DRILL file {KiCad 8.0.0} date 2024-04-26T11:05:56+0200
; FORMAT={-:-/ absolute / inch / decimal}
; #@! TF.CreationDate,2024-04-26T11:05:56+02:00
; #@! TF.GenerationSoftware,Kicad,Pcbnew,8.0.0
; #@! TF.FileFunction,MixedPlating,1,2
FMAT,2
INCH
; #@! TA.AperFunction,Plated,PTH,ComponentDrill
T1C0.0079
; #@! TA.AperFunction,Plated,PTH,ViaDrill
T2C0.0157
; #@! TA.AperFunction,Plated,PTH,ComponentDrill
T3C0.0394
; #@! TA.AperFunction,NonPlated,NPTH,ComponentDrill
T4C0.1063
%
G90
G05
T1
X4.8764Y-3.1264
X4.8764Y-3.1736
X4.9236Y-3.1264
X4.9236Y-3.1736
X5.0014Y-3.4264
X5.0014Y-3.4736
X5.0486Y-3.4264
X5.0486Y-3.4736
T2
X4.08Y-3.275
X4.1Y-3.09
X4.27Y-2.95
X4.2891Y-3.4509
X4.32Y-3.275
X4.36Y-3.45
X4.37Y-3.0
X4.38Y-3.7
X4.38Y-4.1
X4.38Y-4.5
X4.425Y-3.49
X4.43Y-3.89
X4.43Y-4.29
X4.44Y-2.95
X4.48Y-3.83
X4.48Y-3.89
X4.48Y-4.23
X4.48Y-4.29
X4.62Y-3.86
X4.62Y-3.97
X4.62Y-4.26
X4.62Y-4.37
X4.66Y-3.06
X4.67Y-3.86
X4.67Y-3.97
X4.67Y-4.26
X4.67Y-4.37
X4.73Y-3.97
X4.73Y-4.37
X4.75Y-3.13
X4.75Y-3.17
X4.78Y-3.1
X4.78Y-3.2
X4.78Y-3.27
X4.78Y-3.7
X4.78Y-4.1
X4.78Y-4.5
X4.83Y-3.89
X4.83Y-4.29
X4.85Y-3.025
X4.85Y-3.27
X4.88Y-3.3
X4.88Y-3.83
X4.88Y-3.8885
X4.88Y-4.23
X4.88Y-4.29
X4.9Y-2.95
X4.92Y-3.3
X4.95Y-3.27
X5.02Y-3.1
X5.02Y-3.2
X5.02Y-3.27
X5.02Y-3.86
X5.02Y-3.97
X5.02Y-4.26
X5.02Y-4.37
X5.05Y-3.13
X5.05Y-3.17
X5.07Y-3.86
X5.07Y-3.97
X5.07Y-4.26
X5.07Y-4.37
X5.13Y-3.97
X5.13Y-4.37
X5.18Y-2.92
X5.18Y-3.06
X5.18Y-3.7
X5.18Y-4.1
X5.18Y-4.5
X5.23Y-3.89
X5.23Y-4.29
X5.28Y-3.83
X5.28Y-3.89
X5.28Y-4.23
X5.28Y-4.29
X5.325Y-3.15
X5.42Y-3.86
X5.42Y-3.97
X5.42Y-4.26
X5.42Y-4.37
X5.47Y-3.86
X5.47Y-3.97
X5.47Y-4.26
X5.47Y-4.37
X5.525Y-3.05
X5.53Y-3.97
X5.53Y-4.37
X5.55Y-3.1
X5.575Y-3.05
X5.58Y-3.7
X5.58Y-4.1
X5.58Y-4.5
X5.75Y-2.92
X5.9Y-2.92
X5.9Y-3.17
T3
X4.0Y-2.7
X4.0Y-2.8
X4.0Y-2.9402
X4.0Y-3.0402
X4.0Y-3.1402
X4.0Y-3.2402
X4.0Y-3.3402
X4.0Y-3.4402
X4.0Y-3.5402
X4.0Y-3.6402
X4.0Y-3.7402
X4.0Y-3.8402
X4.0Y-4.0
X4.0Y-4.1
X4.0Y-4.2
X4.0Y-4.3
X4.0Y-4.4
X4.0Y-4.5
X4.0Y-4.6
X4.0Y-4.7
X4.1Y-2.7
X4.1Y-2.8
X4.2Y-2.7
X4.2Y-2.8
X4.3Y-2.7
X4.3Y-2.8
X4.4Y-2.7
X4.4Y-2.8
X4.5Y-2.7
X4.5Y-2.8
X4.6Y-2.7
X4.6Y-2.8
X4.7Y-2.7
X4.7Y-2.8
X4.8Y-2.7
X4.8Y-2.8
X4.9Y-2.7
X4.9Y-2.8
X5.0Y-2.7
X5.0Y-2.8
X5.1Y-2.7
X5.1Y-2.8
X5.2Y-2.7
X5.2Y-2.8
X5.3Y-2.7
X5.3Y-2.8
X5.4Y-2.7
X5.4Y-2.8
X5.5Y-2.7
X5.5Y-2.8
X5.6Y-2.7
X5.6Y-2.8
X5.7Y-2.7
X5.7Y-2.8
X5.8Y-2.7
X5.8Y-2.8
X5.9Y-2.7
X5.9Y-2.8
X5.9Y-3.3
X5.9Y-3.4
X5.9Y-3.5
X5.9Y-3.6
X5.9Y-3.7
X5.9Y-3.8
X5.9Y-3.9
X5.9Y-4.0
X5.9Y-4.2
X5.9Y-4.3
X5.9Y-4.4
X5.9Y-4.5
X5.9Y-4.6
X5.9Y-4.7
T4
X3.8083Y-2.75
X3.8083Y-4.6791
X6.0917Y-2.75
X6.0917Y-4.6791
M30
