%TF.GenerationSoftware,KiCad,Pcbnew,8.0.0*%
%TF.CreationDate,2024-04-26T11:05:52+02:00*%
%TF.ProjectId,mender-shield,6d656e64-6572-42d7-9368-69656c642e6b,rev?*%
%TF.SameCoordinates,Original*%
%TF.FileFunction,Paste,Bot*%
%TF.FilePolarity,Positive*%
%FSLAX46Y46*%
G04 Gerber Fmt 4.6, Leading zero omitted, Abs format (unit mm)*
G04 Created by KiCad (PCBNEW 8.0.0) date 2024-04-26 11:05:52*
%MOMM*%
%LPD*%
G01*
G04 APERTURE LIST*
G04 Aperture macros list*
%AMRoundRect*
0 Rectangle with rounded corners*
0 $1 Rounding radius*
0 $2 $3 $4 $5 $6 $7 $8 $9 X,Y pos of 4 corners*
0 Add a 4 corners polygon primitive as box body*
4,1,4,$2,$3,$4,$5,$6,$7,$8,$9,$2,$3,0*
0 Add four circle primitives for the rounded corners*
1,1,$1+$1,$2,$3*
1,1,$1+$1,$4,$5*
1,1,$1+$1,$6,$7*
1,1,$1+$1,$8,$9*
0 Add four rect primitives between the rounded corners*
20,1,$1+$1,$2,$3,$4,$5,0*
20,1,$1+$1,$4,$5,$6,$7,0*
20,1,$1+$1,$6,$7,$8,$9,0*
20,1,$1+$1,$8,$9,$2,$3,0*%
G04 Aperture macros list end*
%ADD10RoundRect,0.250000X-0.262500X-0.450000X0.262500X-0.450000X0.262500X0.450000X-0.262500X0.450000X0*%
%ADD11R,2.000000X1.400000*%
%ADD12R,2.000000X1.000000*%
%ADD13RoundRect,0.250000X-0.250000X-0.475000X0.250000X-0.475000X0.250000X0.475000X-0.250000X0.475000X0*%
%ADD14RoundRect,0.250000X0.475000X-0.250000X0.475000X0.250000X-0.475000X0.250000X-0.475000X-0.250000X0*%
%ADD15RoundRect,0.150000X-0.150000X0.825000X-0.150000X-0.825000X0.150000X-0.825000X0.150000X0.825000X0*%
%ADD16RoundRect,0.150000X0.150000X-0.825000X0.150000X0.825000X-0.150000X0.825000X-0.150000X-0.825000X0*%
G04 APERTURE END LIST*
D10*
%TO.C,R2*%
X108942500Y-89027000D03*
X110767500Y-89027000D03*
%TD*%
%TO.C,R1*%
X108942500Y-90932000D03*
X110767500Y-90932000D03*
%TD*%
D11*
%TO.C,D18*%
X138090000Y-112500000D03*
D12*
X138090000Y-114300000D03*
D11*
X138090000Y-116100000D03*
X133690000Y-116100000D03*
D12*
X133690000Y-114300000D03*
D11*
X133690000Y-112500000D03*
%TD*%
%TO.C,D15*%
X127930000Y-112500000D03*
D12*
X127930000Y-114300000D03*
D11*
X127930000Y-116100000D03*
X123530000Y-116100000D03*
D12*
X123530000Y-114300000D03*
D11*
X123530000Y-112500000D03*
%TD*%
%TO.C,D12*%
X117770000Y-112500000D03*
D12*
X117770000Y-114300000D03*
D11*
X117770000Y-116100000D03*
X113370000Y-116100000D03*
D12*
X113370000Y-114300000D03*
D11*
X113370000Y-112500000D03*
%TD*%
%TO.C,D17*%
X138090000Y-102340000D03*
D12*
X138090000Y-104140000D03*
D11*
X138090000Y-105940000D03*
X133690000Y-105940000D03*
D12*
X133690000Y-104140000D03*
D11*
X133690000Y-102340000D03*
%TD*%
%TO.C,D14*%
X127930000Y-102340000D03*
D12*
X127930000Y-104140000D03*
D11*
X127930000Y-105940000D03*
X123530000Y-105940000D03*
D12*
X123530000Y-104140000D03*
D11*
X123530000Y-102340000D03*
%TD*%
%TO.C,D11*%
X117770000Y-102340000D03*
D12*
X117770000Y-104140000D03*
D11*
X117770000Y-105940000D03*
X113370000Y-105940000D03*
D12*
X113370000Y-104140000D03*
D11*
X113370000Y-102340000D03*
%TD*%
%TO.C,D16*%
X138090000Y-92180000D03*
D12*
X138090000Y-93980000D03*
D11*
X138090000Y-95780000D03*
X133690000Y-95780000D03*
D12*
X133690000Y-93980000D03*
D11*
X133690000Y-92180000D03*
%TD*%
%TO.C,D13*%
X127930000Y-92180000D03*
D12*
X127930000Y-93980000D03*
D11*
X127930000Y-95780000D03*
X123530000Y-95780000D03*
D12*
X123530000Y-93980000D03*
D11*
X123530000Y-92180000D03*
%TD*%
%TO.C,D10*%
X117770000Y-92180000D03*
D12*
X117770000Y-93980000D03*
D11*
X117770000Y-95780000D03*
X113370000Y-95780000D03*
D12*
X113370000Y-93980000D03*
D11*
X113370000Y-92180000D03*
%TD*%
D13*
%TO.C,C5*%
X105730000Y-89027000D03*
X107630000Y-89027000D03*
%TD*%
D14*
%TO.C,C4*%
X143660000Y-84135000D03*
X143660000Y-82235000D03*
%TD*%
D15*
%TO.C,U5*%
X108585000Y-80710000D03*
X109855000Y-80710000D03*
X111125000Y-80710000D03*
X112395000Y-80710000D03*
X112395000Y-85660000D03*
X111125000Y-85660000D03*
X109855000Y-85660000D03*
X108585000Y-85660000D03*
%TD*%
D16*
%TO.C,U4*%
X141605000Y-80710000D03*
X140335000Y-80710000D03*
X139065000Y-80710000D03*
X137795000Y-80710000D03*
X137795000Y-85660000D03*
X139065000Y-85660000D03*
X140335000Y-85660000D03*
X141605000Y-85660000D03*
%TD*%
M02*
